REM DIRINDEX 1\2,1\3,1\4
REM DIRNAME folder01,folder02,folder03,folder04
TITLE ""
FILE "DISC2Track18.mp3" MP3
  TRACK 01 AUDIO
    TITLE "0:"
    INDEX 01 00:00:00
  TRACK 02 AUDIO
    TITLE "4:cjc105_2772"
    INDEX 01 00:00:19
  TRACK 03 AUDIO
    TITLE "0:"
    INDEX 01 00:02:34
  TRACK 04 AUDIO
    TITLE "2:cjc105_2773"
    INDEX 01 00:03:06
  TRACK 05 AUDIO
    TITLE "3:cjc105_2774"
    INDEX 01 00:04:17
  TRACK 06 AUDIO
    TITLE "0:"
    INDEX 01 00:05:44
  TRACK 07 AUDIO
    TITLE "2:cjc105_2775"
    INDEX 01 00:05:59
  TRACK 08 AUDIO
    TITLE "3:cjc105_2776"
    INDEX 01 00:07:07
  TRACK 09 AUDIO
    TITLE "0:"
    INDEX 01 00:08:21
  TRACK 10 AUDIO
    TITLE "2:cjc105_2777"
    INDEX 01 00:08:36
  TRACK 11 AUDIO
    TITLE "3:cjc105_2778"
    INDEX 01 00:09:65
  TRACK 12 AUDIO
    TITLE "0:"
    INDEX 01 00:11:27
  TRACK 13 AUDIO
    TITLE "2:cjc105_2779"
    INDEX 01 00:11:44
  TRACK 14 AUDIO
    TITLE "3:cjc105_2780"
    INDEX 01 00:13:12
  TRACK 15 AUDIO
    TITLE "0:"
    INDEX 01 00:14:23
  TRACK 16 AUDIO
    TITLE "2:cjc105_2781"
    INDEX 01 00:14:37
  TRACK 17 AUDIO
    TITLE "3:cjc105_2782"
    INDEX 01 00:15:56
  TRACK 18 AUDIO
    TITLE "0:"
    INDEX 01 00:17:23
  TRACK 19 AUDIO
    TITLE "2:cjc105_2783"
    INDEX 01 00:17:41
  TRACK 20 AUDIO
    TITLE "3:cjc105_2784"
    INDEX 01 00:19:13
  TRACK 21 AUDIO
    TITLE "0:"
    INDEX 01 00:20:67
  TRACK 22 AUDIO
    TITLE "2:cjc105_2785"
    INDEX 01 00:21:11
  TRACK 23 AUDIO
    TITLE "3:cjc105_2786"
    INDEX 01 00:22:13
  TRACK 24 AUDIO
    TITLE "0:"
    INDEX 01 00:23:38
  TRACK 25 AUDIO
    TITLE "2:cjc105_2787"
    INDEX 01 00:23:51
  TRACK 26 AUDIO
    TITLE "3:cjc105_2788"
    INDEX 01 00:25:21
  TRACK 27 AUDIO
    TITLE "0:"
    INDEX 01 00:26:58
  TRACK 28 AUDIO
    TITLE "2:cjc105_2789"
    INDEX 01 00:26:71
  TRACK 29 AUDIO
    TITLE "3:cjc105_2790"
    INDEX 01 00:27:65
  TRACK 30 AUDIO
    TITLE "0:"
    INDEX 01 00:29:07
  TRACK 31 AUDIO
    TITLE "2:cjc105_2791"
    INDEX 01 00:29:33
  TRACK 32 AUDIO
    TITLE "3:cjc105_2792"
    INDEX 01 00:30:63
  TRACK 33 AUDIO
    TITLE "0:"
    INDEX 01 00:31:69
  TRACK 34 AUDIO
    TITLE "2:cjc105_2793"
    INDEX 01 00:32:05
  TRACK 35 AUDIO
    TITLE "3:cjc105_2794"
    INDEX 01 00:33:22
  TRACK 36 AUDIO
    TITLE "0:"
    INDEX 01 00:34:38
  TRACK 37 AUDIO
    TITLE "2:cjc105_2795"
    INDEX 01 00:34:51
  TRACK 38 AUDIO
    TITLE "3:cjc105_2796"
    INDEX 01 00:35:68
  TRACK 39 AUDIO
    TITLE "0:"
    INDEX 01 00:37:26
  TRACK 40 AUDIO
    TITLE "2:cjc105_2797"
    INDEX 01 00:37:36
  TRACK 41 AUDIO
    TITLE "3:cjc105_2798"
    INDEX 01 00:38:65
  TRACK 42 AUDIO
    TITLE "0:"
    INDEX 01 00:40:15
  TRACK 43 AUDIO
    TITLE "2:cjc105_2799"
    INDEX 01 00:40:28
  TRACK 44 AUDIO
    TITLE "3:cjc105_2800"
    INDEX 01 00:42:21
  TRACK 45 AUDIO
    TITLE "0:"
    INDEX 01 00:43:74
  TRACK 46 AUDIO
    TITLE "2:cjc105_2801"
    INDEX 01 00:44:11
  TRACK 47 AUDIO
    TITLE "3:cjc105_2802"
    INDEX 01 00:45:67
  TRACK 48 AUDIO
    TITLE "0:"
    INDEX 01 00:47:09
  TRACK 49 AUDIO
    TITLE "2:cjc105_2803"
    INDEX 01 00:47:23
  TRACK 50 AUDIO
    TITLE "3:cjc105_2804"
    INDEX 01 00:48:57
  TRACK 51 AUDIO
    TITLE "0:"
    INDEX 01 00:50:21
  TRACK 52 AUDIO
    TITLE "2:cjc105_2805"
    INDEX 01 00:50:33
  TRACK 53 AUDIO
    TITLE "3:cjc105_2806"
    INDEX 01 00:51:44
  TRACK 54 AUDIO
    TITLE "0:"
    INDEX 01 00:53:00
  TRACK 55 AUDIO
    TITLE "2:cjc105_2807"
    INDEX 01 00:53:13
  TRACK 56 AUDIO
    TITLE "3:cjc105_2808"
    INDEX 01 00:54:56
  TRACK 57 AUDIO
    TITLE "0:"
    INDEX 01 00:56:24
  TRACK 58 AUDIO
    TITLE "2:cjc105_2809"
    INDEX 01 00:56:31
  TRACK 59 AUDIO
    TITLE "3:cjc105_2810"
    INDEX 01 00:57:60
  TRACK 60 AUDIO
    TITLE "0:"
    INDEX 01 00:59:16
  TRACK 61 AUDIO
    TITLE "2:cjc105_2811"
    INDEX 01 00:59:30
  TRACK 62 AUDIO
    TITLE "3:cjc105_2812"
    INDEX 01 01:00:57
  TRACK 63 AUDIO
    TITLE "0:"
    INDEX 01 01:02:61
  TRACK 64 AUDIO
    TITLE "2:cjc105_2813"
    INDEX 01 01:02:73
  TRACK 65 AUDIO
    TITLE "3:cjc105_2814"
    INDEX 01 01:04:35
  TRACK 66 AUDIO
    TITLE "0:"
    INDEX 01 01:05:58
  TRACK 67 AUDIO
    TITLE "2:cjc105_2815"
    INDEX 01 01:06:00
  TRACK 68 AUDIO
    TITLE "3:cjc105_2816"
    INDEX 01 01:07:04
  TRACK 69 AUDIO
    TITLE "0:"
    INDEX 01 01:08:05
  TRACK 70 AUDIO
    TITLE "2:cjc105_2817"
    INDEX 01 01:08:21
  TRACK 71 AUDIO
    TITLE "3:cjc105_2818"
    INDEX 01 01:09:50
  TRACK 72 AUDIO
    TITLE "0:"
    INDEX 01 01:10:57
  TRACK 73 AUDIO
    TITLE "2:cjc105_2819"
    INDEX 01 01:10:71
  TRACK 74 AUDIO
    TITLE "3:cjc105_2820"
    INDEX 01 01:12:44
  TRACK 75 AUDIO
    TITLE "0:"
    INDEX 01 01:14:31
